<svg xmlns="http://www.w3.org/2000/svg" width="100" height="100" viewBox="0 0 100 100">
  <g fill="none" stroke="#d8af72" stroke-width="0.7" stroke-opacity="0.55">
    <!-- centre star -->
    <polygon points="80,50 50,80 20,50 50,20"/>
    <polygon points="71.21,71.21 28.79,71.21 28.79,28.79 71.21,28.79"/>
    <!-- corner stars (complete across tile seams) -->
    <polygon points="30,0 0,30 -30,0 0,-30"/>
    <polygon points="21.21,21.21 -21.21,21.21 -21.21,-21.21 21.21,-21.21"/>
    <polygon points="130,0 100,30 70,0 100,-30"/>
    <polygon points="121.21,21.21 78.79,21.21 78.79,-21.21 121.21,-21.21"/>
    <polygon points="30,100 0,130 -30,100 0,70"/>
    <polygon points="21.21,121.21 -21.21,121.21 -21.21,78.79 21.21,78.79"/>
    <polygon points="130,100 100,130 70,100 100,70"/>
    <polygon points="121.21,121.21 78.79,121.21 78.79,78.79 121.21,78.79"/>
  </g>
</svg>
